<?xml version="1.0" encoding="UTF-8"?>
<!DOCTYPE svg PUBLIC "-//W3C//DTD SVG 1.1//EN" "http://www.w3.org/Graphics/SVG/1.1/DTD/svg11.dtd">
<svg xmlns="http://www.w3.org/2000/svg" version="1.1" width="512px" height="512px" style="shape-rendering:geometricPrecision; text-rendering:geometricPrecision; image-rendering:optimizeQuality; fill-rule:evenodd; clip-rule:evenodd" xmlns:xlink="http://www.w3.org/1999/xlink">
<g><path style="opacity:0.999" fill="#c3ddff" d="M 246.5,-0.5 C 249.5,-0.5 252.5,-0.5 255.5,-0.5C 255.5,81.5 255.5,163.5 255.5,245.5C 192.058,209.276 128.725,172.776 65.5,136C 62.1618,134.08 58.6618,132.58 55,131.5C 51.5199,131.831 49.0199,133.498 47.5,136.5C 43.2096,133.015 38.543,130.015 33.5,127.5C 37.2648,120.567 42.5981,115.067 49.5,111C 109.5,76.3333 169.5,41.6667 229.5,7C 235.032,3.89416 240.699,1.39416 246.5,-0.5 Z"/></g>
<g><path style="opacity:1" fill="#dae9ff" d="M 255.5,-0.5 C 258.5,-0.5 261.5,-0.5 264.5,-0.5C 270.301,1.39416 275.968,3.89416 281.5,7C 341.5,41.6667 401.5,76.3333 461.5,111C 468.402,115.067 473.735,120.567 477.5,127.5C 472.457,130.015 467.79,133.015 463.5,136.5C 461.041,132.276 457.374,130.776 452.5,132C 387.105,170.362 321.438,208.196 255.5,245.5C 255.5,163.5 255.5,81.5 255.5,-0.5 Z"/></g>
<g><path style="opacity:0.995" fill="#c2dcff" d="M 477.5,127.5 C 480.394,132.005 482.227,137.005 483,142.5C 483.667,217.833 483.667,293.167 483,368.5C 482.227,373.995 480.394,378.995 477.5,383.5C 406.592,342.55 335.592,301.883 264.5,261.5C 264.833,337.002 264.499,412.335 263.5,487.5C 263.333,411.833 263.5,336.166 264,260.5C 328.752,222.874 393.585,185.374 458.5,148C 462.907,145.468 464.574,141.635 463.5,136.5C 467.79,133.015 472.457,130.015 477.5,127.5 Z"/></g>
<g><path style="opacity:1" fill="#a4ccfe" d="M 33.5,127.5 C 38.543,130.015 43.2096,133.015 47.5,136.5C 46.4262,141.635 48.0928,145.468 52.5,148C 117.393,185.274 182.06,222.774 246.5,260.5C 176.184,301.139 105.85,341.806 35.5,382.5C 34.6143,383.325 34.281,384.325 34.5,385.5C 31.0783,380.415 28.9116,374.748 28,368.5C 27.3333,293.167 27.3333,217.833 28,142.5C 28.773,137.005 30.6063,132.005 33.5,127.5 Z"/></g>
<g><path style="opacity:1" fill="#fefefe" d="M 463.5,136.5 C 464.574,141.635 462.907,145.468 458.5,148C 393.585,185.374 328.752,222.874 264,260.5C 263.5,336.166 263.333,411.833 263.5,487.5C 262.403,492.92 259.069,495.253 253.5,494.5C 251.284,493.797 249.451,492.464 248,490.5C 247.5,413.834 247.333,337.167 247.5,260.5C 247.335,257.482 247.502,254.482 248,251.5C 250.114,248.879 252.614,246.879 255.5,245.5C 321.438,208.196 387.105,170.362 452.5,132C 457.374,130.776 461.041,132.276 463.5,136.5 Z"/></g>
<g><path style="opacity:1" fill="#dae9ff" d="M 255.5,245.5 C 252.614,246.879 250.114,248.879 248,251.5C 247.502,254.482 247.335,257.482 247.5,260.5C 247.167,260.5 246.833,260.5 246.5,260.5C 182.06,222.774 117.393,185.274 52.5,148C 48.0928,145.468 46.4262,141.635 47.5,136.5C 49.0199,133.498 51.5199,131.831 55,131.5C 58.6618,132.58 62.1618,134.08 65.5,136C 128.725,172.776 192.058,209.276 255.5,245.5 Z"/></g>
<g><path style="opacity:1" fill="#8bb3ea" d="M 246.5,260.5 C 246.833,260.5 247.167,260.5 247.5,260.5C 247.333,337.167 247.5,413.834 248,490.5C 249.451,492.464 251.284,493.797 253.5,494.5C 255.379,499.87 256.045,505.537 255.5,511.5C 252.5,511.5 249.5,511.5 246.5,511.5C 240.699,509.606 235.032,507.106 229.5,504C 167.5,468 105.5,432 43.5,396C 39.9155,392.922 36.9155,389.422 34.5,385.5C 34.281,384.325 34.6143,383.325 35.5,382.5C 105.85,341.806 176.184,301.139 246.5,260.5 Z"/></g>
<g><path style="opacity:1" fill="#a4ccfe" d="M 477.5,383.5 C 473.735,390.433 468.402,395.933 461.5,400C 401.5,434.667 341.5,469.333 281.5,504C 275.968,507.106 270.301,509.606 264.5,511.5C 261.5,511.5 258.5,511.5 255.5,511.5C 256.045,505.537 255.379,499.87 253.5,494.5C 259.069,495.253 262.403,492.92 263.5,487.5C 264.499,412.335 264.833,337.002 264.5,261.5C 335.592,301.883 406.592,342.55 477.5,383.5 Z"/></g>
</svg>
